<svg width="100" height="105" viewBox="0 0 100 105" fill="none" xmlns="http://www.w3.org/2000/svg">
<g clip-path="url(#clip0_52:2641)">
<path d="M49.9999 8.71655C26.9999 8.71655 8.33325 28.2415 8.33325 52.2989C8.33325 76.3564 26.9999 95.8813 49.9999 95.8813C72.9999 95.8813 91.6666 76.3564 91.6666 52.2989C91.6666 28.2415 72.9999 8.71655 49.9999 8.71655ZM29.4583 79.6687C31.2499 75.7463 42.1666 71.911 49.9999 71.911C57.8332 71.911 68.7916 75.7463 70.5416 79.6687C64.8749 84.3756 57.7499 87.1648 49.9999 87.1648C42.2499 87.1648 35.1249 84.3756 29.4583 79.6687ZM76.4999 73.3492C70.5416 65.7659 56.0833 63.1945 49.9999 63.1945C43.9166 63.1945 29.4583 65.7659 23.4999 73.3492C19.2499 67.5092 16.6666 60.2309 16.6666 52.2989C16.6666 33.0791 31.6249 17.433 49.9999 17.433C68.3749 17.433 83.3333 33.0791 83.3333 52.2989C83.3333 60.2309 80.7499 67.5092 76.4999 73.3492ZM49.9999 26.1495C41.9166 26.1495 35.4166 32.9484 35.4166 41.4033C35.4166 49.8583 41.9166 56.6572 49.9999 56.6572C58.0833 56.6572 64.5832 49.8583 64.5832 41.4033C64.5832 32.9484 58.0833 26.1495 49.9999 26.1495ZM49.9999 47.9407C46.5416 47.9407 43.7499 45.0207 43.7499 41.4033C43.7499 37.786 46.5416 34.866 49.9999 34.866C53.4583 34.866 56.2499 37.786 56.2499 41.4033C56.2499 45.0207 53.4583 47.9407 49.9999 47.9407Z" fill="black"/>
</g>
<defs>
<clipPath id="clip0_52:2641">
<rect width="100" height="104.598" fill="white"/>
</clipPath>
</defs>
</svg>
